<svg width="32" height="32" viewBox="0 0 32 32" fill="none" xmlns="http://www.w3.org/2000/svg">
<path d="M26.5468 17.2656C27.3905 16.75 27.9999 15.7656 27.9999 14.6875C27.9999 12.9531 26.5468 11.5469 24.8593 11.5469H20.1718C20.5936 10.4219 20.8749 9.34375 20.8749 8.73438C20.8749 7.1875 19.6093 5.54688 17.5468 5.54688C13.8905 5.54688 15.1561 9.20312 11.9218 11.7812C11.6405 11.9688 9.49989 12.2969 9.49989 12.625C9.49989 12.9488 8.04374 13.2461 9.58931 13.4536C9.49989 16.0183 9.49989 18.3776 9.62489 21.625C8.38146 21.625 11.3889 23.2434 11.9218 23.6875L13.6561 24.9531C15.0155 25.9844 16.6561 26.5 18.3436 26.5H20.828C22.4686 26.5 23.828 25.2344 23.9218 23.5938C24.7655 23.0312 25.2811 22.0938 25.2811 21.0156C25.2811 20.875 25.2811 20.7344 25.2811 20.5938C26.078 20.0312 26.6405 19.0938 26.6405 18.0156C26.6405 17.7812 26.5936 17.5 26.5468 17.2656Z" fill="currentColor"/>
<path fill-rule="evenodd" clip-rule="evenodd" d="M6 24.3434C4.89543 24.3434 4 23.448 4 22.3434V13.5146C4 12.41 4.89543 11.5146 6 11.5146H8C9.10457 11.5146 10 12.41 10 13.5146V22.3434C10 23.448 9.10457 24.3434 8 24.3434H6ZM7.07764 22.9652C6.52535 22.9652 6.07764 22.5175 6.07764 21.9652V13.9652C6.07764 13.4129 6.52535 12.9652 7.07764 12.9652C7.62992 12.9652 8.07764 13.4129 8.07764 13.9652V21.9652C8.07764 22.5175 7.62992 22.9652 7.07764 22.9652Z" fill="currentColor"/>
<path d="M8.41528 23.618H12.1609C12.7132 23.618 13.1609 23.1703 13.1609 22.618V22.618C13.1609 22.0657 12.7132 21.618 12.1609 21.618H8.41528V23.618Z" fill="currentColor"/>
<path d="M8.42627 13.7252H12.1609C12.7132 13.7252 13.1609 13.2774 13.1609 12.7252V12.7252C13.1609 12.1729 12.7132 11.7252 12.1609 11.7252H8.42627V13.7252Z" fill="currentColor"/>
</svg>
