<svg width="24" height="38" viewBox="0 0 24 38" fill="none" xmlns="http://www.w3.org/2000/svg">
<path d="M19.5907 12.5172C19.3123 12.3555 19.0221 12.2161 18.7226 12.1001C18.4129 11.7628 18.065 11.4642 17.6863 11.2105L18.3418 7.30352C18.5164 6.25248 18.3822 5.17222 17.9563 4.19882C17.5303 3.22542 16.8315 2.40242 15.948 1.83349C15.0645 1.26455 14.0358 0.975126 12.9914 1.00168C11.947 1.02823 10.9336 1.36956 10.0789 1.98269C9.26 1.41793 8.30293 1.09741 7.31527 1.05715C6.32762 1.01688 5.34851 1.25847 4.48802 1.75477C3.62752 2.25106 2.91973 2.98239 2.44416 3.86657C1.9686 4.75075 1.7441 5.75274 1.79592 6.75995L2.34889 17.4959C1.47438 18.7161 1.00205 20.1881 1 21.6999V26.6217C1 29.4351 1.96041 30.8218 3.40418 32.0446C3.53944 32.1514 3.66635 32.2688 3.78379 32.3958C3.83887 32.5621 3.86667 32.7366 3.86606 32.9122C3.86606 32.9832 3.85972 33.0542 3.85972 33.1265C3.85972 34.1539 4.25967 35.1391 4.97158 35.8655C5.68348 36.5919 6.64902 37 7.6558 37H18.9934C20.0002 37 20.9657 36.5919 21.6777 35.8655C22.3896 35.1391 22.7895 34.1539 22.7895 33.1265V18.8296C22.7882 14.9549 20.7839 13.2118 19.5907 12.5172ZM3.86983 32.8231C3.86983 32.8489 3.86983 32.8748 3.86983 32.9019C3.86603 32.8515 3.86983 32.8231 3.86983 32.8231Z" fill="#F1F333" stroke="black" stroke-width="0.5" stroke-miterlimit="10"/>
<path d="M14.2281 26.6536V25.0345C14.2283 24.5961 14.1438 24.1619 13.9795 23.7568C13.8152 23.3518 13.5743 22.9837 13.2706 22.6736C12.9668 22.3635 12.6061 22.1176 12.2092 21.9498C11.8123 21.7819 11.3868 21.6956 10.9572 21.6956H9.27427L12.506 20.7918C12.898 20.6814 13.2352 20.4251 13.4512 20.0736C13.6672 19.722 13.7462 19.3006 13.6727 18.8925C13.6333 18.6756 13.552 18.4688 13.4334 18.2843C13.3148 18.0999 13.1614 17.9414 12.9821 17.8181C12.8027 17.6949 12.6011 17.6094 12.389 17.5666C12.1769 17.5239 11.9585 17.5247 11.7468 17.5691L7.36483 18.4832C6.63949 18.6351 5.98777 19.0379 5.51977 19.6234C5.05177 20.2089 4.79617 20.9413 4.79614 21.6969V26.62C4.79614 28.8408 5.60598 28.5981 6.70178 29.9099C7.79758 31.2217 7.6546 33.1184 7.6546 33.1184" stroke="black" stroke-width="0.5" stroke-linecap="round" stroke-linejoin="round"/>
<path d="M13.6726 18.8881C13.6726 18.8881 13.7042 16.6931 14.9911 15.912C15.9464 15.3335 18.9921 14.9888 18.9921 18.8287V33.1191H7.65454" stroke="black" stroke-width="0.5" stroke-linecap="round" stroke-linejoin="round"/>
<path d="M16.4197 15.5398C16.4197 15.5398 15.9907 14.1621 14.6102 14.1621C13.2297 14.1621 12.2275 14.5998 11.8467 16.0575C11.4658 17.5152 11.4177 17.6134 11.4177 17.6134" stroke="black" stroke-width="0.5" stroke-linecap="round" stroke-linejoin="round"/>
<path d="M6.22594 18.9441L5.59326 6.54907C5.57222 6.14989 5.70319 5.75786 5.95881 5.45492C6.21443 5.15198 6.57493 4.96158 6.96492 4.92351C7.365 4.8835 7.76429 5.00701 8.07526 5.26696C8.38623 5.52691 8.58349 5.90208 8.62379 6.31021L9.56647 15.7601L11.6847 6.05714C11.7689 5.67391 11.9953 5.33885 12.3164 5.12221C12.6375 4.90557 13.0283 4.82418 13.4068 4.89511V4.89511C13.7922 4.96751 14.1341 5.1918 14.3586 5.51945C14.583 5.84711 14.6721 6.25178 14.6064 6.64591L13.3296 14.256" stroke="black" stroke-width="0.5" stroke-linecap="round" stroke-linejoin="round"/>
<path d="M7.79749 15.8623L11.8466 16.0573" stroke="black" stroke-width="0.5" stroke-linecap="round" stroke-linejoin="round"/>
<path d="M13.5144 19.9468L13.5018 20.0591C13.4786 20.278 13.4987 20.4993 13.561 20.7101C13.6232 20.9208 13.7263 21.1167 13.8642 21.286C14.002 21.4553 14.1718 21.5946 14.3634 21.6957C14.5551 21.7968 14.7646 21.8576 14.9797 21.8745V21.8745C15.3755 21.906 15.7687 21.787 16.0838 21.5406C16.3989 21.2942 16.6136 20.9376 16.6867 20.5395L17.1814 17.8564" stroke="black" stroke-width="0.5" stroke-linecap="round" stroke-linejoin="round"/>
<path d="M17.8963 19.46L16.8486 19.8486" stroke="black" stroke-width="0.5" stroke-linecap="round" stroke-linejoin="round"/>
<path d="M10.6079 17.9121C10.6079 18.0567 10.6079 19.1749 11.7986 18.9321C12.9893 18.6894 13.2753 18.0089 13.2753 18.0089" stroke="black" stroke-width="0.5" stroke-linecap="round" stroke-linejoin="round"/>
<path d="M13.8472 20.9663C13.8953 20.4318 13.9902 19.4596 14.8949 19.5086C15.8654 19.5603 16.2767 20.5286 16.1818 21.4531" stroke="black" stroke-width="0.5" stroke-linecap="round" stroke-linejoin="round"/>
</svg>
