<svg width="32" height="32" viewBox="0 0 32 32" fill="none" xmlns="http://www.w3.org/2000/svg">
<path d="M21 16C21 16.5625 20.5312 17.0312 20 17.0312H17V20.0313C17 20.5625 16.5312 21 16 21C15.4375 21 15 20.5625 15 20.0313V17.0312H12C11.4375 17.0312 11 16.5625 11 16C11 15.4687 11.4375 15.0312 12 15.0312H15V12.0312C15 11.4687 15.4375 11 16 11C16.5312 11 17 11.4687 17 12.0312V15.0312H20C20.5312 15 21 15.4687 21 16Z" fill="currentColor"/>
<path fill-rule="evenodd" clip-rule="evenodd" d="M16 26C21.5228 26 26 21.5228 26 16C26 10.4772 21.5228 6 16 6C10.4772 6 6 10.4772 6 16C6 21.5228 10.4772 26 16 26ZM16 28C22.6274 28 28 22.6274 28 16C28 9.37258 22.6274 4 16 4C9.37258 4 4 9.37258 4 16C4 22.6274 9.37258 28 16 28Z" fill="currentColor"/>
</svg>
