<svg width="36" height="26" viewBox="0 0 36 26" fill="none" xmlns="http://www.w3.org/2000/svg">
<path d="M25.6884 1.01025C26.0504 1.37906 26.2929 1.84998 26.3839 2.36078V2.69587L26.7143 2.58366L30.766 1.20765C31.256 1.04148 31.7845 1.02988 32.2811 1.17435C32.7778 1.31883 33.2192 1.61261 33.5463 2.01682C33.8734 2.42106 34.0706 2.91645 34.1111 3.43691C34.1517 3.95738 34.0337 4.47781 33.7732 4.9287L33.7731 4.92865L33.7698 4.93473L33.7647 4.94409L32.3284 7.44638L32.1532 7.75148L32.499 7.81653L33.6718 8.03723L33.672 8.03726C34.1899 8.13431 34.6654 8.39126 35.0325 8.77288C35.3996 9.15452 35.6401 9.64198 35.7204 10.1679C35.8007 10.6938 35.7167 11.2317 35.4803 11.7073C35.2438 12.1827 34.8667 12.5721 34.4015 12.8216L34.4014 12.8216L32.3207 13.9384L32.0778 14.0688L32.2313 14.2978L32.9146 15.3175L32.9148 15.3177C33.1961 15.7366 33.3483 16.2302 33.3519 16.7364C33.3555 17.2426 33.2104 17.7384 32.935 18.1614C32.6596 18.5843 32.2664 18.9154 31.8051 19.1132C31.3438 19.3111 30.8349 19.3669 30.3423 19.2737L30.3419 19.2737L29.9411 19.1986L29.5908 19.133L29.6484 19.4848L29.9068 21.0627C29.9068 21.0627 29.9068 21.0627 29.9068 21.0627C29.9908 21.5767 29.9174 22.1043 29.6967 22.5751C29.476 23.046 29.1185 23.4376 28.6719 23.6983C28.2254 23.959 27.7109 24.0765 27.1968 24.0353C26.6826 23.9941 26.1929 23.7962 25.7927 23.4676L23.3836 21.488L23.2076 21.3434L23.0473 21.5051C21.7906 22.7733 20.2409 23.7066 18.5378 24.2215L18.5378 24.2215L18.5346 24.2225C17.0997 24.6771 15.6051 24.9117 14.101 24.9181C10.9747 24.918 7.96377 23.8547 5.22434 21.747C3.40784 20.3383 1.85246 18.6174 0.629983 16.6633C0.315732 16.1509 0.190462 15.5431 0.276431 14.9467C0.362443 14.3499 0.654328 13.8031 1.10033 13.4022L1.10036 13.4022L1.10357 13.3992L1.18901 13.3197C1.18917 13.3195 1.18933 13.3194 1.18949 13.3192C2.9483 11.7006 3.80322 10.4657 4.21148 9.71395L4.2115 9.71393C6.05651 6.31585 8.7327 5.46235 10.6516 5.33749C11.3066 5.29662 11.9641 5.33937 12.6084 5.46471L12.7413 5.49056L12.8355 5.39343C13.4539 4.75637 14.2519 4.12626 15.2092 3.76607L15.2095 3.76598C16.7541 3.18298 18.5088 3.16872 20.1938 3.69353L20.3838 3.75271L20.4841 3.58083L21.6887 1.51621L21.6888 1.51599C21.9528 1.0624 22.3487 0.701891 22.8224 0.48301C23.2961 0.264139 23.825 0.197355 24.3375 0.291589C24.85 0.385825 25.3216 0.636596 25.6884 1.01025Z" fill="#23A094" stroke="black" stroke-width="0.5"/>
<path d="M23.7144 8.23535C23.7144 8.23535 23.7144 8.26404 23.7067 8.31701C23.6563 8.89634 23.2533 12.3999 20.9098 15.0229L20.7784 14.8254C19.4282 14.1313 17.0365 14.7856 16.179 15.9112C11.5271 15.5802 9.58987 18.1182 9.58987 18.1182L9.57673 18.2131C5.32888 17.6117 2.85507 15.4157 2.76855 15.3374C2.87806 15.3109 6.53238 14.4303 7.85853 13.9194C8.96677 13.4924 9.64244 12.8391 10.4736 12.3745L10.5612 12.4043C10.6839 12.4485 12.0155 14.501 13.0438 14.6455C13.6176 14.7228 14.7018 14.4579 15.6523 14.1379C16.4057 13.8852 17.0759 13.5983 17.3497 13.4217C18.0987 12.934 17.5687 9.85196 17.5687 9.85196L17.5468 9.79789C18.1294 9.5485 18.8051 9.40394 19.7195 9.38518C21.5132 9.34435 23.7144 8.23535 23.7144 8.23535Z" fill="black"/>
<path d="M2.76855 15.3351C2.97005 15.1376 5.21498 13.1844 6.41849 10.9664C7.62199 8.74841 9.24492 8.0179 10.7934 7.91638C11.7743 7.8726 12.7501 8.08029 13.6297 8.51999C13.6297 8.51999 14.6448 6.72793 16.075 6.18832C17.5052 5.64872 19.4194 5.865 21.0741 6.94863C21.1694 7.01263 21.2635 7.07222 21.3544 7.1285C22.8394 8.05543 23.7143 8.23198 23.7143 8.23198C23.7143 8.23198 21.5121 9.33547 19.7184 9.3763C18.804 9.39506 18.1283 9.53961 17.5457 9.789C16.985 10.0296 16.5087 10.3639 15.9863 10.7744C15.4639 11.1849 15.1803 11.4277 14.7675 11.5777C14.3294 11.7389 13.7425 11.7885 12.5904 11.7984C11.8483 11.7968 11.1187 11.9904 10.4736 12.3601C9.64244 12.828 8.96676 13.4813 7.85853 13.905C6.53238 14.4159 2.88354 15.2965 2.76855 15.323" stroke="black" stroke-width="0.5" stroke-linecap="round" stroke-linejoin="round"/>
<path d="M2.76855 15.3347C2.85726 15.4903 8.27357 24.7364 17.7603 21.7912C20.198 21.0331 21.7136 19.5114 22.6412 17.7547C24.7952 13.6718 23.7746 8.31543 23.7746 8.31543" stroke="black" stroke-width="0.5" stroke-linecap="round" stroke-linejoin="round"/>
<path d="M23.7144 8.23535C23.7144 8.23535 23.7144 8.26404 23.7067 8.31701C23.6563 8.89634 23.2533 12.3999 20.9098 15.0229C19.8909 16.1717 18.5829 17.0219 17.1241 17.4837C14.2221 18.4194 11.6815 18.5121 9.57673 18.2142C5.32888 17.6128 2.85507 15.4168 2.76855 15.3385" stroke="black" stroke-width="0.5" stroke-linecap="round" stroke-linejoin="round"/>
<path d="M10.5623 12.399C10.6849 12.4432 12.0165 14.4957 13.0448 14.6402C13.6187 14.7175 14.7028 14.4526 15.6533 14.1326C16.4068 13.8799 17.077 13.593 17.3507 13.4165C18.0998 12.9287 17.5697 9.84668 17.5697 9.84668" stroke="black" stroke-width="0.5" stroke-linecap="round" stroke-linejoin="round"/>
<path d="M31.5543 3.6582L31.5532 3.65931L28.1255 9.63137L33.1837 10.5804L28.3621 13.1658L30.7833 16.7764L26.4654 15.9632L27.3721 21.5027L22.8921 17.8203" stroke="black" stroke-width="0.5" stroke-linecap="round" stroke-linejoin="round"/>
<path d="M21.3599 7.1187L23.8567 2.83496C23.8567 2.83496 24.5006 6.62544 24.6232 6.62764C24.7459 6.62985 31.4478 3.7023 31.5519 3.65816" stroke="black" stroke-width="0.5" stroke-linecap="round" stroke-linejoin="round"/>
<path d="M14.7993 11.6699L15.6338 14.038" stroke="black" stroke-width="0.5" stroke-linecap="round" stroke-linejoin="round"/>
<path d="M9.58984 18.119C9.58984 18.119 11.5271 15.581 16.179 15.912C17.0365 14.7865 19.4281 14.1321 20.7784 14.8262" stroke="black" stroke-width="0.5" stroke-linecap="round" stroke-linejoin="round"/>
</svg>
