<svg width="32" height="38" viewBox="0 0 32 38" fill="none" xmlns="http://www.w3.org/2000/svg">
<path d="M30.5394 12.3777C30.236 11.373 29.7038 10.4533 28.985 9.69145C28.2663 8.92959 27.3806 8.3466 26.3985 7.98874C25.0842 7.50485 23.6617 7.45656 22.3067 7.64743C22.2055 6.87731 22.0501 6.11537 21.8418 5.36729C21.4413 3.91876 20.5112 2.67566 19.2376 1.88684C17.964 1.09802 16.441 0.821695 14.9734 1.11318C13.5058 1.40466 12.202 2.24244 11.3229 3.45881C10.4437 4.67518 10.0543 6.18037 10.2324 7.67307C10.2553 7.87362 10.2817 8.10159 10.3094 8.36035C10.3755 8.99257 10.4444 9.64528 9.29519 11.6074C8.69625 12.3854 5.89979 14.1238 3.38963 15.2748C2.50526 15.6789 1.79355 16.387 1.38266 17.2717C0.971765 18.1563 0.888687 19.1594 1.14841 20.1002L4.98814 33.9983C5.27744 35.0455 5.96884 35.9343 6.91022 36.4692C7.8516 37.0042 8.96584 37.1414 10.0078 36.8507L24.9939 32.6702C26.6235 32.2121 28.0399 31.1908 28.9936 29.7861C29.9473 28.3814 30.3771 26.6835 30.2073 24.9915C30.2757 24.8306 30.3415 24.6705 30.3994 24.5126C30.8273 23.2971 30.8737 21.9789 30.5324 20.736C30.6599 20.3876 30.7566 20.0286 30.8214 19.6631C31.0283 18.5455 30.9563 17.3938 30.6119 16.311C30.9693 15.0208 30.9441 13.6537 30.5394 12.3777Z" fill="#FFC900" stroke="black" stroke-width="0.5" stroke-miterlimit="10"/>
<path d="M25.9209 24.3899L26.0573 24.8834C26.2771 25.6789 26.1734 26.5295 25.7691 27.2482C25.3648 27.9668 24.6929 28.4946 23.9013 28.7154L8.91529 32.8959L5.07556 18.9977C5.07556 18.9977 11.3705 16.1218 12.7803 13.7298C14.1902 11.3378 14.5599 9.79155 14.3632 7.92565C14.3337 7.65037 14.306 7.40719 14.2817 7.19142C14.2287 6.74849 14.3354 6.30115 14.5822 5.9304C14.8291 5.55964 15.1999 5.28998 15.6275 5.17022C15.8622 5.10439 16.1074 5.08565 16.3493 5.11508C16.5912 5.1445 16.825 5.22151 17.0372 5.34171C17.2495 5.46191 17.4361 5.62295 17.5864 5.81563C17.7368 6.00831 17.8479 6.22886 17.9134 6.46468C18.1774 7.42018 18.4079 8.65293 18.3229 9.8617C18.1463 12.3931 16.5805 15.9513 16.5805 15.9513L23.1291 14.2847L21.9098 13.9048" stroke="black" stroke-width="0.5" stroke-linecap="round" stroke-linejoin="round"/>
<path d="M22.8364 25.3308C22.8364 25.3308 26.0072 24.7483 26.5418 23.1759C26.7105 22.7182 26.7244 22.2173 26.5812 21.7509C26.4381 21.2845 26.146 20.8785 25.75 20.5957" stroke="black" stroke-width="0.5" stroke-linecap="round" stroke-linejoin="round"/>
<path d="M22.9882 21.8471C22.9882 21.8471 26.4259 21.1177 26.8045 18.9397C27.1132 17.1723 25.98 16.5273 25.98 16.5273" stroke="black" stroke-width="0.5" stroke-linecap="round" stroke-linejoin="round"/>
<path d="M22.5741 18.0401C22.5741 18.0401 25.257 17.3711 26.4626 15.6796C27.0999 14.7803 26.8609 12.5264 25.0036 11.8438C23.423 11.2641 20.7641 12.0654 19.5028 12.9786C18.2416 13.8918 18.4304 15.4381 18.4304 15.4381" stroke="black" stroke-width="0.5" stroke-linecap="round" stroke-linejoin="round"/>
<path d="M14.4812 8.93036C14.4812 8.93036 16.0213 8.70487 15.9889 7.46931C15.9486 5.87871 14.8593 5.68359 14.8593 5.68359" stroke="black" stroke-width="0.5" stroke-linecap="round" stroke-linejoin="round"/>
</svg>
