<svg width="32" height="32" viewBox="0 0 32 32" fill="none" xmlns="http://www.w3.org/2000/svg">
<path d="M12.625 5C12.625 5.55228 13.0727 6 13.625 6H18.375C18.9273 6 19.375 5.55228 19.375 5V4.125C19.375 3.51562 19.8438 3 20.5 3C21.1094 3 21.625 3.51562 21.625 4.125V5C21.625 5.55228 22.0727 6 22.625 6H24.5C26.1406 6 27.5 7.35938 27.5 9V24C27.5 25.6875 26.1406 27 24.5 27H7.5C5.8125 27 4.5 25.6875 4.5 24V9C4.5 7.35938 5.8125 6 7.5 6H9.375C9.92728 6 10.375 5.55228 10.375 5V4.125C10.375 3.51562 10.8438 3 11.5 3C12.1094 3 12.625 3.51562 12.625 4.125V5ZM6.75 24C6.75 24.4219 7.07812 24.75 7.5 24.75H24.5C24.875 24.75 25.25 24.4219 25.25 24V9C25.25 8.44772 24.8088 8 24.2566 8C21.4222 8 13.1534 8 7.74661 8C7.19432 8 6.75 8.44772 6.75 9V24Z" fill="#16191C"/>
<rect x="10.3564" y="3.53204" width="2.3" height="6.53003" rx="1.15" fill="black"/>
<rect x="21.0259" y="12.8413" width="2.3" height="10.7332" rx="1.15" transform="rotate(90 21.0259 12.8413)" fill="black"/>
<rect x="19.364" y="3.53204" width="2.3" height="6.53003" rx="1.15" fill="black"/>
</svg>
