<svg width="32" height="32" viewBox="0 0 32 32" fill="none" xmlns="http://www.w3.org/2000/svg">
<path d="M10.375 19.75C10.9844 19.75 11.5 20.2656 11.5 20.875C11.5 21.5312 10.9844 22 10.375 22H8.125C7.46875 22 7 21.5312 7 20.875C7 20.2656 7.46875 19.75 8.125 19.75H10.375ZM19.375 19.75C19.9844 19.75 20.5 20.2656 20.5 20.875C20.5 21.5312 19.9844 22 19.375 22H14.125C13.4688 22 13 21.5312 13 20.875C13 20.2656 13.4688 19.75 14.125 19.75H19.375ZM26.5 5.5C28.1406 5.5 29.5 6.85938 29.5 8.5V23.5C29.5 25.1875 28.1406 26.5 26.5 26.5H5.5C3.8125 26.5 2.5 25.1875 2.5 23.5V8.5C2.5 6.85938 3.8125 5.5 5.5 5.5H26.5ZM26.5 7.75H5.5C5.07812 7.75 4.75 8.125 4.75 8.5V11H27.25V8.5C27.25 8.125 26.875 7.75 26.5 7.75ZM27.25 13.5H4.75V23.5C4.75 23.9219 5.07812 24.25 5.5 24.25H26.5C26.875 24.25 27.25 23.9219 27.25 23.5V13.5Z" fill="#16191C"/>
</svg>
