<svg width="32" height="32" viewBox="0 0 32 32" fill="none" xmlns="http://www.w3.org/2000/svg">
<path d="M25.75 16C25.75 16.8438 25.0469 17.5469 24.25 17.5469H17.5V24.2969C17.5 25.0938 16.7969 25.75 16 25.75C15.1562 25.75 14.5 25.0938 14.5 24.2969V17.5469H7.75C6.90625 17.5469 6.25 16.8438 6.25 16C6.25 15.2031 6.90625 14.5469 7.75 14.5469H14.5V7.79688C14.5 6.95312 15.1562 6.25 16 6.25C16.7969 6.25 17.5 6.95312 17.5 7.79688V14.5469H24.25C25.0469 14.5 25.75 15.2031 25.75 16Z" fill="currentColor"/>
</svg>
