<svg width="32" height="32" viewBox="0 0 32 32" fill="none" xmlns="http://www.w3.org/2000/svg">
<path d="M18.7 26C16.9 20.7826 15.1 18.1739 12.4 16.4348C15.1898 14.4131 16.3582 11.8693 17.5805 9.20786C17.9354 8.43503 18.2949 7.6523 18.7 6.86957V26Z" fill="currentColor"/>
<path d="M18.7 26C20.5 20.7826 22.3 18.1739 25 16.4348C22.2101 14.4131 21.0418 11.8693 19.8195 9.20786C19.4646 8.43503 19.105 7.6523 18.7 6.86957V26Z" fill="currentColor"/>
<path d="M10.1909 12.9565C9.27921 11.0593 8.36753 10.1107 7 9.47826C8.41305 8.74312 9.0048 7.81807 9.62389 6.85029C9.80366 6.56926 9.98573 6.28463 10.1909 6V12.9565Z" fill="currentColor"/>
<path d="M10.1909 12.9565C11.1026 11.0593 12.0143 10.1107 13.3818 9.47826C11.9688 8.74312 11.377 7.81807 10.7579 6.85029C10.5782 6.56926 10.3961 6.28463 10.1909 6V12.9565Z" fill="currentColor"/>
<path d="M10.1909 25.1304C9.27921 23.2332 8.36753 22.2846 7 21.6522C8.41305 20.917 9.0048 19.992 9.62389 19.0242C9.80366 18.7432 9.98573 18.4585 10.1909 18.1739V25.1304Z" fill="currentColor"/>
<path d="M10.1909 25.1304C11.1026 23.2332 12.0143 22.2846 13.3818 21.6522C11.9688 20.917 11.377 19.992 10.7579 19.0242C10.5782 18.7432 10.3961 18.4585 10.1909 18.1739V25.1304Z" fill="currentColor"/>
</svg>
