<svg width="32" height="32" viewBox="0 0 32 32" fill="none" xmlns="http://www.w3.org/2000/svg">
<path fill-rule="evenodd" clip-rule="evenodd" d="M7 7H25V23C25 25.7614 22.7614 28 20 28H12C9.23858 28 7 25.7614 7 23V7ZM9 9V23C9 24.6569 10.3431 26 12 26H20C21.6569 26 23 24.6569 23 23V9H9Z" fill="black"/>
<path d="M6 8C6 7.44772 6.40701 7 6.90909 7H25.0909C25.593 7 26 7.44772 26 8C26 8.55228 25.593 9 25.0909 9H6.90909C6.40701 9 6 8.55228 6 8Z" fill="black"/>
<path d="M12 7C12 5.89543 12.8954 5 14 5H18C19.1046 5 20 5.89543 20 7V8H12V7Z" fill="black"/>
<path d="M12 13C12 12.4477 12.4477 12 13 12C13.5523 12 14 12.4477 14 13V22C14 22.5523 13.5523 23 13 23C12.4477 23 12 22.5523 12 22V13Z" fill="black"/>
<path d="M18 13C18 12.4477 18.4477 12 19 12C19.5523 12 20 12.4477 20 13V22C20 22.5523 19.5523 23 19 23C18.4477 23 18 22.5523 18 22V13Z" fill="black"/>
</svg>
