<svg width="32" height="32" viewBox="0 0 32 32" fill="none" xmlns="http://www.w3.org/2000/svg">
<path d="M26.5469 14.7812C27.3906 15.2969 28 16.2812 28 17.3594C28 19.0938 26.5469 20.5 24.8594 20.5H20.1719C20.5938 21.625 20.875 22.7031 20.875 23.3125C20.875 24.8594 19.6094 26.5 17.5469 26.5C13.8906 26.5 15.1562 22.8438 11.9219 20.2656C11.6406 20.0781 11.5 19.75 11.5 19.4219C11.5 18.8125 11.9688 18.2969 12.625 18.2969C13.5156 18.2969 15.25 20.0312 16.4219 22.9375C16.8906 24.25 16.9844 24.25 17.5469 24.25C18.3438 24.25 18.625 23.6875 18.625 23.3125C18.625 22.9375 18.25 21.4375 17.4062 19.8438C17.3125 19.7031 17.2656 19.5156 17.2656 19.3281C17.2656 18.7188 17.7812 18.25 18.3906 18.25H24.8594C25.3281 18.25 25.75 17.8281 25.75 17.3594C25.75 16.9375 25.375 16.5156 24.9062 16.5156C24.2969 16.4688 23.8281 15.9531 23.8281 15.3906C23.8281 14.6406 24.3906 14.6406 24.3906 14.0312C24.3906 13.6094 24.0625 13.2344 23.6406 13.1406C23.2656 13.0938 22.75 12.7188 22.75 12.0625C22.75 11.5 23.0312 11.4531 23.0312 11.0312C23.0312 9.95312 21.625 10.375 21.625 9.10938C21.625 8.875 21.7188 8.82812 21.7188 8.64062C21.7188 8.17188 21.2969 7.75 20.8281 7.75H18.3438C17.125 7.75 15.9531 8.17188 15.0156 8.875L13.2812 10.1875C13.0938 10.3281 12.8594 10.4219 12.625 10.4219C11.9688 10.4219 11.5 9.85938 11.5 9.29688C11.5 8.92188 11.6406 8.59375 11.9219 8.35938L13.6562 7.09375C15.0156 6.0625 16.6562 5.54688 18.3438 5.54688H20.8281C22.4688 5.54688 23.8281 6.8125 23.9219 8.45312C24.7656 9.01562 25.2812 9.95312 25.2812 11.0312C25.2812 11.1719 25.2812 11.3125 25.2812 11.4531C26.0781 12.0156 26.6406 12.9531 26.6406 14.0312C26.6406 14.2656 26.5938 14.5469 26.5469 14.7812Z" fill="black"/>
<path fill-rule="evenodd" clip-rule="evenodd" d="M6 7.70349C4.89543 7.70349 4 8.59892 4 9.70349V18.5323C4 19.6369 4.89543 20.5323 6 20.5323H8C9.10457 20.5323 10 19.6369 10 18.5323V9.70349C10 8.59892 9.10457 7.70349 8 7.70349H6ZM7.07764 9.08167C6.52535 9.08167 6.07764 9.52938 6.07764 10.0817V18.0817C6.07764 18.634 6.52535 19.0817 7.07764 19.0817C7.62992 19.0817 8.07764 18.6339 8.07764 18.0817V10.0817C8.07764 9.52938 7.62992 9.08167 7.07764 9.08167Z" fill="black"/>
<path d="M8.41528 8.42889H12.1609C12.7132 8.42889 13.1609 8.87661 13.1609 9.42889C13.1609 9.98118 12.7132 10.4289 12.1609 10.4289H8.41528V8.42889Z" fill="black"/>
<path d="M8.42627 18.3217H12.1609C12.7132 18.3217 13.1609 18.7694 13.1609 19.3217C13.1609 19.874 12.7132 20.3217 12.1609 20.3217H8.42627V18.3217Z" fill="black"/>
</svg>
