<svg width="32" height="32" viewBox="0 0 32 32" fill="none" xmlns="http://www.w3.org/2000/svg">
<path fill-rule="evenodd" clip-rule="evenodd" d="M23.5 9.25H8.5L8.5 10.75H23.5V9.25ZM8.5 7.75C7.67157 7.75 7 8.42157 7 9.25V10.75C7 11.5784 7.67157 12.25 8.5 12.25H23.5C24.3284 12.25 25 11.5784 25 10.75V9.25C25 8.42157 24.3284 7.75 23.5 7.75H8.5Z" fill="currentColor"/>
<path fill-rule="evenodd" clip-rule="evenodd" d="M22 12.25H10V22C10 22.4142 10.3358 22.75 10.75 22.75H21.25C21.6642 22.75 22 22.4142 22 22V12.25ZM8.5 10.75V22C8.5 23.2426 9.50736 24.25 10.75 24.25H21.25C22.4926 24.25 23.5 23.2426 23.5 22V10.75H8.5Z" fill="currentColor"/>
<path fill-rule="evenodd" clip-rule="evenodd" d="M13.0012 15.25C13.0012 14.8358 13.2697 14.5 13.601 14.5H18.399C18.7303 14.5 18.9988 14.8358 18.9988 15.25C18.9988 15.6642 18.7303 16 18.399 16H13.601C13.2697 16 13.0012 15.6642 13.0012 15.25Z" fill="currentColor"/>
</svg>
