<svg width="32" height="32" viewBox="0 0 32 32" fill="none" xmlns="http://www.w3.org/2000/svg">
<path d="M26.5469 17.2656C27.3906 16.75 28 15.7656 28 14.6875C28 12.9531 26.5469 11.5469 24.8594 11.5469H20.1719C20.5938 10.4219 20.875 9.34375 20.875 8.73438C20.875 7.1875 19.6094 5.54688 17.5469 5.54688C13.8906 5.54688 15.1562 9.20312 11.9219 11.7812C11.6406 11.9688 11.5 12.2969 11.5 12.625C11.5 13.2344 11.9688 13.75 12.625 13.75C13.5156 13.75 15.25 12.0156 16.4219 9.10938C16.8906 7.79688 16.9844 7.79688 17.5469 7.79688C18.3438 7.79688 18.625 8.35938 18.625 8.73438C18.625 9.10938 18.25 10.6094 17.4062 12.2031C17.3125 12.3438 17.2656 12.5312 17.2656 12.7188C17.2656 13.3281 17.7812 13.7969 18.3906 13.7969H24.8594C25.3281 13.7969 25.75 14.2188 25.75 14.6875C25.75 15.1094 25.375 15.5312 24.9062 15.5312C24.2969 15.5781 23.8281 16.0938 23.8281 16.6562C23.8281 17.4062 24.3906 17.4062 24.3906 18.0156C24.3906 18.4375 24.0625 18.8125 23.6406 18.9062C23.2656 18.9531 22.75 19.3281 22.75 19.9844C22.75 20.5469 23.0312 20.5938 23.0312 21.0156C23.0312 22.0938 21.625 21.6719 21.625 22.9375C21.625 23.1719 21.7188 23.2188 21.7188 23.4062C21.7188 23.875 21.2969 24.2969 20.8281 24.2969H18.3438C17.125 24.2969 15.9531 23.875 15.0156 23.1719L13.2812 21.8594C13.0938 21.7188 12.8594 21.625 12.625 21.625C11.9688 21.625 11.5 22.1875 11.5 22.75C11.5 23.125 11.6406 23.4531 11.9219 23.6875L13.6562 24.9531C15.0156 25.9844 16.6562 26.5 18.3438 26.5H20.8281C22.4688 26.5 23.8281 25.2344 23.9219 23.5938C24.7656 23.0312 25.2812 22.0938 25.2812 21.0156C25.2812 20.875 25.2812 20.7344 25.2812 20.5938C26.0781 20.0312 26.6406 19.0938 26.6406 18.0156C26.6406 17.7812 26.5938 17.5 26.5469 17.2656Z" fill="currentColor"/>
<path fill-rule="evenodd" clip-rule="evenodd" d="M6 24.3434C4.89543 24.3434 4 23.448 4 22.3434V13.5146C4 12.41 4.89543 11.5146 6 11.5146H8C9.10457 11.5146 10 12.41 10 13.5146V22.3434C10 23.448 9.10457 24.3434 8 24.3434H6ZM7.07764 22.9652C6.52535 22.9652 6.07764 22.5175 6.07764 21.9652V13.9652C6.07764 13.4129 6.52535 12.9652 7.07764 12.9652C7.62992 12.9652 8.07764 13.4129 8.07764 13.9652V21.9652C8.07764 22.5175 7.62992 22.9652 7.07764 22.9652Z" fill="currentColor"/>
<path d="M8.41528 23.618H12.1609C12.7132 23.618 13.1609 23.1703 13.1609 22.618C13.1609 22.0657 12.7132 21.618 12.1609 21.618H8.41528V23.618Z" fill="currentColor"/>
<path d="M8.42627 13.7252H12.1609C12.7132 13.7252 13.1609 13.2774 13.1609 12.7252C13.1609 12.1729 12.7132 11.7252 12.1609 11.7252H8.42627V13.7252Z" fill="currentColor"/>
</svg>
