<svg width="32" height="32" viewBox="0 0 32 32" fill="none" xmlns="http://www.w3.org/2000/svg">
<path d="M19.3334 16C19.3334 16.375 19.0209 16.6875 18.6667 16.6875H16.6667V18.6875C16.6667 19.0417 16.3542 19.3334 16.0001 19.3334C15.6251 19.3334 15.3334 19.0417 15.3334 18.6875V16.6875H13.3334C12.9584 16.6875 12.6667 16.375 12.6667 16C12.6667 15.6459 12.9584 15.3542 13.3334 15.3542H15.3334V13.3542C15.3334 12.9792 15.6251 12.6667 16.0001 12.6667C16.3542 12.6667 16.6667 12.9792 16.6667 13.3542V15.3542H18.6667C19.0209 15.3334 19.3334 15.6459 19.3334 16Z" fill="currentColor"/>
<path fill-rule="evenodd" clip-rule="evenodd" d="M16 22.6667C19.6819 22.6667 22.6667 19.6819 22.6667 16C22.6667 12.3181 19.6819 9.33333 16 9.33333C12.3181 9.33333 9.33333 12.3181 9.33333 16C9.33333 19.6819 12.3181 22.6667 16 22.6667ZM16 24C20.4183 24 24 20.4183 24 16C24 11.5817 20.4183 8 16 8C11.5817 8 8 11.5817 8 16C8 20.4183 11.5817 24 16 24Z" fill="currentColor"/>
</svg>
