<svg width="32" height="32" viewBox="0 0 32 32" fill="none" xmlns="http://www.w3.org/2000/svg">
<path fill-rule="evenodd" clip-rule="evenodd" d="M26.4167 6.62502H5.58333L5.58333 8.70835H26.4167V6.62502ZM5.58333 4.54169C4.43274 4.54169 3.5 5.47443 3.5 6.62502V8.70835C3.5 9.85895 4.43274 10.7917 5.58333 10.7917H26.4167C27.5673 10.7917 28.5 9.85895 28.5 8.70835V6.62502C28.5 5.47443 27.5673 4.54169 26.4167 4.54169H5.58333Z" fill="currentColor"/>
<path fill-rule="evenodd" clip-rule="evenodd" d="M24.3333 10.7917H7.66659V24.3334C7.66659 24.9087 8.13296 25.375 8.70825 25.375H23.2916C23.8669 25.375 24.3333 24.9087 24.3333 24.3334V10.7917ZM5.58325 8.70837V24.3334C5.58325 26.0593 6.98236 27.4584 8.70825 27.4584H23.2916C25.0175 27.4584 26.4166 26.0593 26.4166 24.3334V8.70837H5.58325Z" fill="currentColor"/>
<path fill-rule="evenodd" clip-rule="evenodd" d="M11.835 14.9584C11.835 14.3831 12.2079 13.9167 12.668 13.9167H19.3319C19.792 13.9167 20.1649 14.3831 20.1649 14.9584C20.1649 15.5337 19.792 16 19.3319 16H12.668C12.2079 16 11.835 15.5337 11.835 14.9584Z" fill="currentColor"/>
</svg>
