<svg width="32" height="32" viewBox="0 0 32 32" fill="none" xmlns="http://www.w3.org/2000/svg">
<path d="M23.0312 20.9688C23.6406 21.5312 23.6406 22.5156 23.0312 23.0781C22.75 23.3594 22.375 23.5 22 23.5C21.5781 23.5 21.2031 23.3594 20.9219 23.0781L16 18.1562L11.0312 23.0781C10.75 23.3594 10.375 23.5 10 23.5C9.57812 23.5 9.20312 23.3594 8.92188 23.0781C8.3125 22.5156 8.3125 21.5312 8.92188 20.9688L13.8438 16L8.92188 11.0781C8.3125 10.5156 8.3125 9.53125 8.92188 8.96875C9.48438 8.35938 10.4688 8.35938 11.0312 8.96875L16 13.8906L20.9219 8.96875C21.4844 8.35938 22.4688 8.35938 23.0312 8.96875C23.6406 9.53125 23.6406 10.5156 23.0312 11.0781L18.1094 16.0469L23.0312 20.9688Z" fill="#16191C"/>
</svg>
