<svg width="32" height="32" viewBox="0 0 32 32" fill="none" xmlns="http://www.w3.org/2000/svg">
<path d="M26.547 14.7812C27.3907 15.2969 28.0001 16.2812 28.0001 17.3594C28.0001 19.0938 26.547 20.5 24.8595 20.5H20.172C20.5939 21.625 20.8751 22.7031 20.8751 23.3125C20.8751 24.8594 19.6095 26.5 17.547 26.5C13.8907 26.5 15.1564 22.8438 11.922 20.2656C11.6407 20.0781 11.5001 19.75 11.5001 19.4219C11.5001 18.8125 8.96886 18.2969 9.62511 18.2969C8.62497 14.625 8.12516 12.4688 8.62511 10.4219C7.96886 10.4219 11.5001 9.85938 11.5001 9.29688C11.5001 8.92188 11.6407 8.59375 11.922 8.35938L13.6564 7.09375C15.0157 6.0625 16.6564 5.54688 18.3439 5.54688H20.8282C22.4689 5.54688 23.8282 6.8125 23.922 8.45312C24.7657 9.01562 25.2814 9.95312 25.2814 11.0312C25.2814 11.1719 25.2814 11.3125 25.2814 11.4531C26.0782 12.0156 26.6407 12.9531 26.6407 14.0312C26.6407 14.2656 26.5939 14.5469 26.547 14.7812Z" fill="currentColor"/>
<path fill-rule="evenodd" clip-rule="evenodd" d="M6 7.70349C4.89543 7.70349 4 8.59892 4 9.70349V18.5323C4 19.6369 4.89543 20.5323 6 20.5323H8C9.10457 20.5323 10 19.6369 10 18.5323V9.70349C10 8.59892 9.10457 7.70349 8 7.70349H6ZM7.07764 9.08167C6.52535 9.08167 6.07764 9.52938 6.07764 10.0817V18.0817C6.07764 18.634 6.52535 19.0817 7.07764 19.0817C7.62992 19.0817 8.07764 18.6339 8.07764 18.0817V10.0817C8.07764 9.52938 7.62992 9.08167 7.07764 9.08167Z" fill="currentColor"/>
<path d="M8.41528 8.42889H12.1609C12.7132 8.42889 13.1609 8.87661 13.1609 9.42889C13.1609 9.98118 12.7132 10.4289 12.1609 10.4289H8.41528V8.42889Z" fill="currentColor"/>
<path d="M8.42627 18.3217H12.1609C12.7132 18.3217 13.1609 18.7694 13.1609 19.3217C13.1609 19.874 12.7132 20.3217 12.1609 20.3217H8.42627V18.3217Z" fill="currentColor"/>
</svg>
