<svg width="32" height="32" viewBox="0 0 32 32" fill="none" xmlns="http://www.w3.org/2000/svg">
<circle cx="16" cy="16" r="12" fill="currentColor"/>
<path d="M16.9609 18.2109H15.0547L14.6562 10.5781H17.3594L16.9609 18.2109ZM14.625 20.8828C14.625 20.4453 14.7422 20.1146 14.9766 19.8906C15.2109 19.6667 15.5521 19.5547 16 19.5547C16.4323 19.5547 16.7656 19.6693 17 19.8984C17.2396 20.1276 17.3594 20.4557 17.3594 20.8828C17.3594 21.2943 17.2396 21.6198 17 21.8594C16.7604 22.0938 16.4271 22.2109 16 22.2109C15.5625 22.2109 15.224 22.0964 14.9844 21.8672C14.7448 21.6328 14.625 21.3047 14.625 20.8828Z" fill="white"/>
</svg>
