<svg width="32" height="32" viewBox="0 0 32 32" fill="none" xmlns="http://www.w3.org/2000/svg">
<path fill-rule="evenodd" clip-rule="evenodd" d="M9.74893 6.44747C9.75325 6.47682 9.75752 6.50588 9.76175 6.53471C9.79919 6.78984 9.83408 7.02761 9.88301 7.29936C9.96361 7.74699 10.0564 8.1117 10.1877 8.41303C10.3144 8.70385 10.4712 8.92182 10.679 9.09022C10.8879 9.25947 11.1996 9.42012 11.6961 9.51942C11.9421 9.56862 12.1738 9.61378 12.3924 9.65637C13.2283 9.81928 13.8708 9.94451 14.3787 10.1138C15.1209 10.3612 15.6244 10.7101 16.2071 11.2929C16.5412 11.627 16.8767 12.1218 17.1702 12.5658C17.2394 12.6706 17.3081 12.7753 17.3765 12.8797C17.6224 13.2549 17.8649 13.6247 18.1189 13.9711C18.4483 14.4203 18.7364 14.743 18.9801 14.9245C19.0497 14.9764 19.1016 15.0069 19.1386 15.0247C19.3841 14.7864 19.5521 14.3423 19.7792 13.4228C19.7955 13.3564 19.8122 13.2882 19.8292 13.2182C20.0594 12.2727 20.3665 11.0113 21.2 9.9C21.4371 9.5838 21.5885 9.36794 21.7284 9.16833C21.8248 9.03087 21.9157 8.90111 22.0256 8.7516C22.242 8.45707 22.5011 8.13217 22.8796 7.89879C23.1288 7.74511 23.3887 7.6552 23.655 7.60046C21.6741 5.68029 18.9749 4.5 16 4.5C13.6768 4.5 11.524 5.21917 9.74893 6.44747ZM25.2217 9.50073C24.8109 9.50246 24.5223 9.50827 24.2979 9.52757C24.0076 9.55255 23.9423 9.5931 23.9298 9.60084L23.9293 9.60121C23.9023 9.61783 23.8341 9.66793 23.6372 9.9359C23.5877 10.0033 23.5145 10.107 23.4255 10.233C23.256 10.4731 23.0293 10.7943 22.8 11.1C22.2205 11.8726 22.0016 12.7618 21.7536 13.7694C21.7427 13.8135 21.7318 13.8577 21.7208 13.9022C21.7174 13.9161 21.714 13.93 21.7105 13.944C21.4825 14.8683 21.1616 16.1692 20.0145 16.8575L19.9204 16.914L19.8162 16.9487C19.0003 17.2207 18.2805 16.8972 17.7855 16.5286C17.2949 16.1632 16.8642 15.6422 16.5061 15.1539C16.2176 14.7605 15.9369 14.3321 15.6877 13.9517C15.6235 13.8537 15.5614 13.7588 15.5017 13.6686C15.1858 13.1907 14.9588 12.873 14.7929 12.7071C14.3756 12.2899 14.1291 12.1388 13.7463 12.0112C13.372 11.8864 12.9018 11.7944 12.1014 11.6379C11.8661 11.5919 11.6022 11.5403 11.3039 11.4806C10.5504 11.3299 9.92458 11.053 9.41995 10.6442C8.91428 10.2344 8.58153 9.73365 8.35421 9.21197C8.17799 8.80758 8.06246 8.38419 7.97682 7.97467C6.39493 9.66037 5.33932 11.8434 5.06871 14.263C5.22665 14.3042 5.39564 14.3471 5.57414 14.3924C5.60171 14.3994 5.62951 14.4065 5.65753 14.4136C6.17505 14.545 6.7561 14.6943 7.26385 14.8642C7.72493 15.0185 8.30796 15.2452 8.69331 15.605C8.90366 15.8014 9.16691 16.1425 9.17738 16.6258C9.18739 17.0877 8.96158 17.4405 8.74093 17.6724C8.76657 17.7325 8.82385 17.8337 8.94008 17.9665C9.09081 18.1388 9.28327 18.2981 9.45619 18.4097C9.52933 18.4569 9.58736 18.488 9.6258 18.5059C9.792 18.5212 9.94235 18.5631 10.0498 18.5977C10.2033 18.6473 10.3645 18.714 10.5245 18.7913C10.8442 18.9458 11.2047 19.1642 11.5475 19.4357C12.1813 19.9375 13 20.8204 13 22C13 22.9393 13.2276 24.8947 13.4004 26.1913C14.233 26.3929 15.1034 26.5 16 26.5C16.0057 26.5 16.0113 26.5 16.017 26.5C16.0138 26.425 16.0136 26.3505 16.0163 26.2768C16.0381 25.6612 16.2483 25.0268 16.4356 24.5135C16.5011 24.334 16.5644 24.1675 16.6244 24.0096C16.7565 23.6618 16.8726 23.3564 16.9604 23.0491C17.0903 22.5947 17.0755 22.3888 17.0513 22.3162C16.9905 22.1337 16.8901 21.811 16.9319 21.4842C16.9572 21.287 17.0518 20.9623 17.3672 20.7286C17.6707 20.5037 17.9916 20.5033 18.1573 20.5217C18.4445 20.5536 18.7002 20.692 18.8074 20.75L18.8098 20.7513C18.9325 20.8177 19.0722 20.9018 19.1984 20.9778C19.2209 20.9913 19.243 21.0046 19.2645 21.0175C19.5797 21.2067 19.8789 21.3773 20.1668 21.481C20.4597 21.5864 20.6133 21.5748 20.6838 21.5513C20.7085 21.5431 20.7278 21.5357 20.7426 21.5295C20.7461 21.486 20.75 21.4033 20.75 21.25C20.75 21.2373 20.7499 21.2236 20.7499 21.209C20.749 20.9879 20.7472 20.5513 20.9246 20.1373C21.152 19.6068 21.5931 19.2482 22.1838 19.0513C23.7238 18.538 24.955 18.897 26.2992 19.289C26.3086 19.2917 26.3179 19.2945 26.3273 19.2972C26.7623 18.1146 27 16.836 27 15.5C27 13.2853 26.3465 11.2258 25.2217 9.50073ZM25.4495 21.1346C24.2524 20.7965 23.6999 20.6541 22.8162 20.9487C22.7915 20.9569 22.7722 20.9643 22.7574 20.9705C22.7539 21.014 22.75 21.0967 22.75 21.25C22.75 21.2627 22.7501 21.2764 22.7501 21.291C22.751 21.5121 22.7528 21.9487 22.5754 22.3627C22.348 22.8932 21.9069 23.2518 21.3162 23.4487C20.6367 23.6752 19.9778 23.5386 19.4894 23.3628C19.3174 23.3009 19.1506 23.2281 18.9932 23.1517C18.9615 23.3105 18.9228 23.4608 18.8834 23.5989C18.7709 23.9922 18.6066 24.4248 18.4618 24.8061C18.4089 24.9454 18.3586 25.0778 18.3144 25.1991C18.1341 25.6932 18.0326 26.0521 18.0165 26.3157C21.1722 25.7313 23.8576 23.7981 25.4495 21.1346ZM18.9158 21.5695C18.9158 21.5695 18.916 21.5706 18.9164 21.5726C18.9159 21.5705 18.9158 21.5695 18.9158 21.5695ZM17.7911 22.4766C17.7874 22.4752 17.7855 22.4743 17.7855 22.4743C17.7854 22.4742 17.7873 22.4749 17.7911 22.4766ZM22.7148 20.9917C22.7148 20.9917 22.7153 20.9913 22.7166 20.9905C22.7155 20.9913 22.7148 20.9918 22.7148 20.9917ZM20.7852 21.5083C20.7852 21.5083 20.7847 21.5087 20.7834 21.5095C20.7845 21.5086 20.7852 21.5082 20.7852 21.5083ZM11.2892 25.4434C11.1432 24.2377 11 22.8268 11 22C11 21.7654 10.8044 21.3983 10.306 21.0037C10.0828 20.8269 9.84774 20.6855 9.65453 20.5922C9.55802 20.5456 9.48337 20.5165 9.43572 20.5011C9.43181 20.4998 9.42823 20.4987 9.425 20.4977C9.18883 20.4837 8.98344 20.4067 8.85814 20.3532C8.69395 20.2831 8.52844 20.1913 8.37194 20.0903C8.06048 19.8894 7.72169 19.6112 7.43492 19.2835C7.15859 18.9677 6.86267 18.5284 6.76057 18.0034C6.68608 17.6203 6.72301 17.2232 6.89433 16.8556C6.81428 16.8248 6.72583 16.7932 6.62905 16.7608C6.20314 16.6182 5.69363 16.4862 5.16523 16.352C5.12801 16.3426 5.09058 16.3331 5.05301 16.3236C5.04533 16.3216 5.03764 16.3197 5.02994 16.3177C5.3267 20.3555 7.80337 23.789 11.2892 25.4434ZM9.40083 20.4912C9.4008 20.4911 9.40266 20.4915 9.40655 20.4925C9.40281 20.4918 9.40086 20.4913 9.40083 20.4912ZM9.66788 18.5231C9.66798 18.5233 9.66423 18.5222 9.65634 18.5191C9.66384 18.5213 9.66779 18.5229 9.66788 18.5231ZM19.2141 15.0478C19.2144 15.0486 19.21 15.0492 19.2001 15.0473C19.2089 15.046 19.2139 15.047 19.2141 15.0478ZM8.05605 5.20881C10.2528 3.51081 13.0098 2.5 16 2.5C20.3504 2.5 24.2015 4.63792 26.5597 7.91603C28.0953 10.0507 29 12.6712 29 15.5C29 17.4313 28.5782 19.2668 27.8208 20.9171C25.983 24.9213 22.1697 27.8326 17.6237 28.3995C17.0914 28.4659 16.5495 28.5 16 28.5C14.6827 28.5 13.4094 28.3038 12.2088 27.9382C6.87944 26.3157 3 21.3622 3 15.5C3 15.3188 3.00371 15.1385 3.01107 14.959C3.17373 10.9904 5.11564 7.48164 8.05605 5.20881Z" fill="currentColor"/>
</svg>
