<svg width="36" height="36" viewBox="0 0 36 36" fill="none" xmlns="http://www.w3.org/2000/svg">
<path d="M7.68086 35.75H7.68066C7.06446 35.7506 6.46518 35.5478 5.97551 35.1728L5.97531 35.1727L2.1913 32.2817L2.19116 32.2816C1.63872 31.8601 1.26121 31.2489 1.13134 30.5654C1.13132 30.5653 1.1313 30.5652 1.13128 30.5651L0.298639 26.1251L0.29862 26.125C0.207656 25.641 0.244772 25.1417 0.406261 24.6766C0.567749 24.2115 0.847968 23.7969 1.21899 23.4741L1.21904 23.474L3.20298 21.7469L3.43084 21.5485L3.19334 21.3618L2.98369 21.197C2.98358 21.1969 2.98348 21.1968 2.98337 21.1968C2.58734 20.8824 2.28302 20.4671 2.1024 19.9943C1.92173 19.5213 1.87151 19.0084 1.95704 18.5092C2.04257 18.0101 2.26067 17.5433 2.58839 17.1578C2.91611 16.7724 3.34136 16.4825 3.81944 16.3185L5.37697 15.7846L5.60488 15.7065L5.53523 15.4758C5.42359 15.1062 5.38894 14.7175 5.43343 14.3338C5.47792 13.9502 5.6006 13.5798 5.79385 13.2456C5.98709 12.9114 6.24677 12.6206 6.55677 12.3912C6.86664 12.1618 7.22019 11.9987 7.59552 11.9118C7.59568 11.9117 7.59584 11.9117 7.596 11.9117L8.96238 11.5995L9.23011 11.5383L9.14413 11.2775L8.3447 8.85233L8.34466 8.85222C8.21514 8.45991 8.17326 8.04387 8.22199 7.63354C8.27071 7.22321 8.40886 6.82863 8.62662 6.47774C8.84438 6.12685 9.13642 5.82822 9.48208 5.60294C9.82773 5.37767 10.2185 5.23125 10.6269 5.17402L10.7967 5.15022L10.8356 4.98322C11.1496 3.63725 11.9085 2.43721 12.9891 1.57798C14.0696 0.71878 15.4084 0.250816 16.7878 0.25C16.7879 0.25 16.7879 0.25 16.788 0.25L28.9911 0.25C30.6095 0.252077 32.1611 0.897112 33.3055 2.04376C34.45 3.19046 35.0938 4.74517 35.0955 6.36686V18.5897C35.0938 20.2114 34.45 21.7661 33.3055 22.9128C32.1611 24.0595 30.6094 24.7045 28.9909 24.7065H28.1505H28.0047L27.9329 24.8335C27.6048 25.4136 27.0822 25.8585 26.4579 26.0892C25.8337 26.3198 25.148 26.3214 24.5227 26.0937C24.5227 26.0937 24.5227 26.0937 24.5227 26.0937L23.057 25.5598L22.8269 25.476L22.7384 25.7044L22.4587 26.4262C22.4587 26.4262 22.4587 26.4263 22.4586 26.4263C22.2738 26.9014 21.9638 27.3174 21.5617 27.6299C21.1635 27.9394 20.6897 28.1361 20.19 28.1995H20.1441H19.9485L19.9015 28.3894L19.032 31.9028C19.0319 31.9032 19.0318 31.9036 19.0317 31.9039C19.0112 31.9835 18.9905 32.0574 18.9657 32.1295L18.9652 32.1309C18.8372 32.5106 18.6298 32.8587 18.357 33.1518C18.0841 33.4449 17.7521 33.6764 17.3829 33.8307C17.0138 33.9851 16.6161 34.0589 16.2163 34.0471C15.8165 34.0354 15.4237 33.9384 15.0643 33.7627L15.0644 33.7623L15.0523 33.7572L12.3089 32.5906L12.1565 32.5259L12.0374 32.6408L9.63913 34.9552L9.63863 34.9557C9.11367 35.4651 8.41157 35.7499 7.68086 35.75Z" fill="#90A8ED" stroke="black" stroke-width="0.5"/>
<path d="M32.0478 6.59363V18.817C32.048 19.2498 31.963 19.6785 31.7978 20.0785C31.6325 20.4785 31.3903 20.8419 31.0848 21.148C30.7793 21.4542 30.4166 21.697 30.0173 21.8627C29.6181 22.0284 29.1903 22.1137 28.7581 22.1137H24.5891L24.5104 22.1524L22.4506 17.9347L27.0313 17.1339L23.4765 14.9062L29.0979 7.68142L19.923 11.9712L18.564 7.22896L15.8352 11.1544L13.249 9.63678L13.265 9.61009V6.59363C13.2648 6.16076 13.3498 5.73209 13.515 5.33212C13.6803 4.93214 13.9226 4.5687 14.2281 4.26255C14.5336 3.9564 14.8963 3.71355 15.2955 3.54785C15.6947 3.38216 16.1226 3.29687 16.5547 3.29688H28.7581C29.1903 3.29687 29.6181 3.38216 30.0173 3.54785C30.4166 3.71355 30.7793 3.9564 31.0848 4.26255C31.3903 4.5687 31.6325 4.93214 31.7978 5.33212C31.963 5.73209 32.048 6.16076 32.0478 6.59363Z" fill="black"/>
<path d="M18.1642 14.4639L18.9757 19.7307L18.0297 23.5493L16.071 31.4602L15.2863 27.0342L18.1669 14.5306H18.1509L18.1642 14.4639Z" fill="black"/>
<path d="M18.1641 14.5283L15.2835 27.032L15.2568 26.8825L18.1481 14.5337L18.1641 14.5283Z" fill="black"/>
<path d="M11.1584 24.3555L11.9911 28.7881L7.45566 33.1566L6.62158 28.724L11.1584 24.3555Z" fill="black"/>
<path d="M13.265 9.61009V6.59363C13.2648 6.16076 13.3498 5.73209 13.515 5.33212C13.6803 4.93214 13.9226 4.5687 14.2281 4.26255C14.5336 3.9564 14.8963 3.71355 15.2955 3.54785C15.6947 3.38216 16.1226 3.29687 16.5547 3.29688H28.7581C29.1902 3.29687 29.6181 3.38216 30.0173 3.54785C30.4166 3.71355 30.7793 3.9564 31.0848 4.26255C31.3903 4.5687 31.6325 4.93214 31.7978 5.33212C31.963 5.73209 32.048 6.16076 32.0478 6.59363V18.817C32.048 19.2498 31.963 19.6785 31.7978 20.0785C31.6325 20.4785 31.3903 20.8419 31.0848 21.148C30.7793 21.4542 30.4166 21.6971 30.0173 21.8627C29.6181 22.0284 29.1902 22.1137 28.7581 22.1137H24.5891" stroke="black" stroke-width="0.5" stroke-linecap="round" stroke-linejoin="round"/>
<path d="M11.3423 16.8759L11.3356 16.8719L8.0033 14.8898L12.648 13.8153L10.7907 8.19218L13.2489 9.63635L15.8365 11.1539L18.5639 7.22852L19.9243 11.9708L29.0978 7.68099L23.4764 14.9058L27.0313 17.1321L22.4505 17.9343L24.5104 22.152L25.2512 23.6696L20.9755 22.1133L19.6085 25.6303L18.1708 23.5841" stroke="black" stroke-width="0.5" stroke-linecap="round" stroke-linejoin="round"/>
<path d="M18.1482 14.5342L11.3356 16.8726L4.50578 19.2177C4.50578 19.2177 5.87148 20.3015 7.63025 21.6642L2.83362 25.8339L6.61629 28.7249" stroke="black" stroke-width="0.5" stroke-linecap="round" stroke-linejoin="round"/>
<path d="M11.1584 24.3555L15.2796 27.0543L15.2835 27.0316" stroke="black" stroke-width="0.5" stroke-linecap="round" stroke-linejoin="round"/>
<path d="M7.45566 33.1566L6.62158 28.724L11.1584 24.3555L11.9911 28.7881" stroke="black" stroke-width="0.5" stroke-linecap="round" stroke-linejoin="round"/>
<path d="M16.0709 31.4609L16.1123 31.4863" stroke="black" stroke-width="0.5" stroke-linecap="round" stroke-linejoin="round"/>
<path d="M2.83899 25.833L3.67174 30.2656L7.46107 33.1566L11.9912 28.7881C11.9912 28.7881 15.1317 30.8609 16.0683 31.4575" stroke="black" stroke-width="0.5" stroke-linecap="round" stroke-linejoin="round"/>
<path d="M18.1481 14.5333L18.1641 14.4639L18.9769 19.7307L18.0296 23.5493L16.0723 31.4602L16.0709 31.4642L16.0696 31.4575L15.2835 27.0316L15.2568 26.8821L18.1481 14.5333Z" stroke="black" stroke-width="0.5" stroke-linecap="round" stroke-linejoin="round"/>
</svg>
